<?xml version="1.0" standalone="no"?>
<!DOCTYPE svg PUBLIC "-//W3C//DTD SVG 20010904//EN"
 "http://www.w3.org/TR/2001/REC-SVG-20010904/DTD/svg10.dtd">
<svg version="1.0" xmlns="http://www.w3.org/2000/svg"
 width="439.000000pt" height="568.000000pt" viewBox="0 0 439.000000 568.000000"
 preserveAspectRatio="xMidYMid meet">

<g transform="translate(0.000000,568.000000) scale(0.100000,-0.100000)"
fill="#000000" stroke="none">
<path d="M3442 5192 c-26 -27 -62 -78 -81 -113 -95 -182 -144 -284 -193 -409
-16 -41 -33 -78 -36 -82 -6 -6 -69 6 -152 29 -14 4 -93 8 -176 9 -157 2 -318
-18 -394 -50 -34 -14 -57 -22 -72 -25 -5 -1 -24 -10 -43 -21 -57 -32 -107 -35
-170 -11 -30 11 -80 30 -110 42 -30 12 -58 21 -62 21 -4 1 -33 9 -63 20 -29
10 -68 20 -85 23 -16 2 -55 8 -85 14 -58 10 -264 6 -282 -5 -6 -4 -27 -8 -48
-9 l-37 -3 -48 94 c-27 52 -53 94 -58 94 -6 0 -7 3 -4 7 4 3 -2 20 -12 37 -10
17 -39 68 -66 113 -26 46 -52 80 -58 76 -6 -3 -7 -1 -3 5 7 12 -55 102 -95
138 -70 63 -152 47 -188 -36 -11 -25 -22 -57 -25 -71 -2 -13 -9 -44 -15 -69
-9 -41 -51 -256 -66 -339 -3 -19 -8 -38 -11 -43 -3 -5 -7 -18 -9 -31 -3 -12
-19 -65 -36 -117 -17 -52 -32 -102 -34 -110 -3 -8 -23 -67 -45 -129 -22 -63
-38 -121 -35 -128 2 -8 1 -12 -4 -9 -9 6 -94 -282 -95 -326 -1 -14 -4 -24 -7
-22 -3 2 -22 -81 -42 -184 -54 -279 -52 -267 -68 -447 -18 -210 5 -330 114
-595 32 -76 37 -100 46 -230 30 -398 44 -470 114 -572 41 -59 111 -124 209
-193 l43 -31 5 -109 c3 -59 10 -110 15 -112 12 -4 295 -160 345 -191 19 -12
51 -29 70 -38 47 -24 169 -91 447 -248 l233 -131 0 -69 c0 -59 -2 -67 -16 -62
-89 34 -153 32 -241 -8 -59 -28 -133 -90 -133 -113 0 -24 25 -13 69 32 48 49
114 76 180 74 l36 -1 -32 -10 c-54 -18 -149 -111 -167 -165 -20 -57 -20 -83
-2 -83 8 0 17 15 20 36 14 70 85 147 172 184 48 21 56 22 154 5 45 -8 80 -33
99 -73 19 -38 57 -46 45 -9 -13 42 -65 95 -103 103 -14 3 -32 7 -38 10 -9 2
-13 25 -13 69 l0 65 28 -7 c15 -5 84 -8 154 -7 l126 0 59 36 c50 31 126 68
140 68 2 0 2 -51 1 -112 -3 -112 -3 -113 -28 -116 -42 -5 -69 -24 -100 -71
-35 -52 -37 -61 -10 -61 12 0 22 9 26 24 9 38 49 68 101 78 27 5 61 11 76 15
59 12 182 -60 226 -131 11 -17 22 -48 26 -69 5 -27 12 -37 26 -37 26 0 24 14
-10 86 -31 66 -113 147 -166 164 -24 8 -16 9 34 5 75 -6 136 -37 177 -90 30
-40 44 -44 44 -15 0 30 -71 92 -136 118 -80 32 -142 38 -198 19 l-46 -16 0
118 c0 132 -5 123 85 171 33 18 107 59 165 90 58 31 137 74 175 95 39 21 84
46 100 55 43 25 273 150 318 172 44 22 44 20 52 120 6 75 8 78 38 93 49 23
172 121 169 135 -1 6 2 9 7 6 18 -12 91 89 121 166 31 80 44 153 54 298 24
343 31 378 91 505 65 135 111 268 129 370 3 17 8 41 11 55 11 54 6 153 -14
286 -37 236 -51 304 -91 428 -21 67 -50 166 -65 221 -15 55 -33 118 -40 140
-7 22 -23 76 -35 120 -12 44 -44 150 -70 235 -68 215 -86 282 -105 380 -28
141 -75 329 -95 373 -10 23 -27 48 -39 55 -20 11 -26 8 -69 -36z m-1869 -839
c37 -8 75 -12 85 -8 9 3 13 3 9 -1 -3 -4 41 -31 98 -60 58 -29 125 -69 149
-88 23 -20 46 -32 50 -28 4 4 7 3 5 -3 -1 -5 24 -37 55 -70 32 -33 80 -90 106
-128 l48 -67 35 47 c52 70 228 233 252 233 4 0 19 9 34 20 45 32 197 89 284
106 121 25 305 15 412 -21 44 -14 85 -27 90 -28 6 -1 12 -5 15 -9 3 -3 14 -8
25 -10 11 -1 22 -6 25 -9 3 -3 19 -14 35 -23 17 -10 21 -14 10 -11 -40 14
-171 34 -218 35 -168 1 -379 -69 -517 -170 -216 -160 -343 -391 -358 -655 l-7
-110 -46 -8 c-33 -6 -62 -5 -95 5 l-49 14 -7 112 c-3 68 -14 139 -27 181 -92
304 -316 518 -629 603 -120 32 -308 30 -425 -6 -49 -14 -125 -44 -170 -66
l-82 -40 60 55 c33 31 83 71 110 90 58 38 167 95 184 95 7 0 9 4 6 10 -3 5 0
7 8 4 8 -3 35 0 58 7 111 30 251 31 382 2z m-211 -258 c168 -29 285 -91 409
-216 71 -72 95 -104 132 -181 69 -141 82 -193 82 -338 0 -147 -9 -187 -76
-325 -58 -120 -119 -195 -224 -275 -219 -165 -505 -193 -766 -76 -78 35 -175
110 -199 153 -12 21 -32 56 -46 78 -13 22 -34 66 -45 98 -12 31 -25 57 -28 57
-4 0 -7 8 -8 18 -1 9 -11 51 -23 92 -30 107 -40 323 -20 429 45 228 298 444
576 490 77 13 145 12 236 -4z m1931 1 c166 -32 361 -141 429 -241 34 -50 92
-226 109 -328 14 -93 8 -242 -16 -343 -32 -142 -108 -306 -183 -398 -24 -30
-110 -96 -125 -96 -4 0 -27 -9 -50 -19 -94 -43 -158 -55 -287 -56 -104 0 -138
4 -200 24 -98 30 -206 83 -250 121 -19 16 -38 30 -42 30 -4 0 -37 35 -73 77
-196 230 -240 536 -115 808 138 301 483 482 803 421z m-1149 -861 c45 -14 73
-14 142 0 18 4 22 -3 33 -58 18 -91 86 -242 141 -317 60 -81 156 -173 238
-229 127 -86 346 -147 500 -139 39 2 72 3 72 2 0 -1 -31 -12 -70 -23 -38 -12
-70 -26 -70 -32 0 -6 -5 -7 -10 -4 -6 4 -36 1 -68 -6 -74 -15 -230 -15 -307 1
-159 33 -307 103 -416 199 -29 25 -54 41 -56 35 -2 -6 -20 -37 -40 -69 -30
-48 -38 -56 -43 -40 -6 23 -57 107 -81 136 -16 18 -18 18 -58 -26 -23 -25 -45
-45 -50 -45 -5 0 -11 -4 -13 -8 -4 -11 -114 -84 -165 -110 -23 -12 -81 -34
-130 -49 -76 -23 -106 -27 -223 -27 -120 -1 -146 3 -230 28 -52 15 -100 31
-107 34 -6 4 43 7 110 7 135 1 196 13 333 69 195 79 352 230 446 426 44 91 68
170 68 222 0 21 1 38 3 38 1 0 24 -7 51 -15z m-954 -841 c74 -26 149 -52 165
-60 17 -7 98 -36 180 -64 215 -74 332 -115 399 -139 32 -11 62 -18 67 -15 5 3
9 1 9 -4 0 -6 17 -20 38 -33 56 -33 160 -33 227 2 28 14 78 34 112 44 34 11
59 24 56 29 -4 5 -1 6 6 2 10 -7 42 1 116 28 17 6 35 11 40 12 6 1 43 14 84
28 41 14 78 23 83 20 4 -3 8 2 8 11 0 9 4 14 9 11 12 -8 347 97 361 113 3 3
19 6 35 6 17 0 32 3 35 6 3 3 26 13 53 22 44 15 51 15 92 -1 25 -9 45 -20 45
-25 0 -4 4 -6 8 -3 4 2 13 1 20 -3 11 -7 -61 -31 -483 -164 -88 -27 -221 -69
-295 -93 -74 -24 -162 -51 -194 -59 -33 -9 -74 -25 -91 -35 -63 -39 -257 -49
-369 -19 -21 6 -49 21 -62 34 -12 12 -25 21 -27 18 -3 -2 -81 20 -173 50 -93
30 -259 82 -369 117 -110 35 -258 82 -330 105 -71 23 -146 46 -165 50 l-35 9
54 12 c30 7 59 10 65 7 5 -4 7 0 4 8 -4 11 6 15 41 16 33 2 84 -10 181 -43z"/>
<path d="M1610 3525 c-103 -33 -164 -121 -164 -236 0 -87 31 -150 97 -196 122
-86 286 -54 357 70 55 96 49 190 -16 280 -57 79 -175 114 -274 82z m186 -310
c19 -29 11 -60 -21 -81 -36 -23 -84 5 -85 50 0 53 76 76 106 31z"/>
<path d="M2670 3516 c-135 -55 -190 -227 -113 -354 35 -56 112 -107 178 -117
94 -14 194 37 254 130 22 34 26 51 26 116 0 67 -3 81 -29 120 -44 67 -69 88
-130 109 -71 26 -118 25 -186 -4z m206 -301 c20 -31 15 -53 -18 -78 l-28 -21
-27 21 c-16 11 -29 30 -31 42 -8 55 73 83 104 36z"/>
</g>
</svg>
